<svg xmlns="http://www.w3.org/2000/svg" version="1.0" width="1440" height="2593.333" viewBox="0 0 1080 1945"><path xmlns="http://www.w3.org/2000/svg" fill="#0096E1" d="M583.7 488.7c-14.2 21.9-25.7 45.6-38.2 78.3-8.2 21.6-10.4 28.5-16.5 53.5-9.4 38.7-14.8 71-17 102-.6 8.2-1.5 20.4-2.1 27-.5 6.6-1.2 27.2-1.6 45.8-.5 25.6-.9 34-1.9 34.8-.9.7-3.8.8-9.6.1-12.7-1.6-11.8 1.5-11.8-42.1 0-62.4 3.9-99.1 16.4-156.6.8-3.9 3.8-14.7 6.5-24 4.3-14.6 6.5-21.5 13.4-40 .6-1.7 3.5-7.9 6.4-13.8 5.7-11.5 6-12.7 4-12.7-2.2 0-4 2.6-11.8 16.5-24.9 44.6-43.5 96.7-53.4 150-.9 4.9-2.1 11-2.5 13.5-.5 2.5-1.4 7.9-2 12-.5 4.1-1.5 10.4-2 14-2.6 17.9-4.1 32.4-6.5 63.5-.8 10.7-1.1 11.5-4.3 11.5-6 0-18.7-4-20.9-6.5-2-2.3-2.1-2.7-.8-5.2.9-1.7 1.5-5.8 1.5-10.5 0-12.8 5.7-62.4 8.1-70.2.5-1.6.9-4.5.9-6.4 0-2 .4-4.9.9-6.6s1.4-5.4 2-8.1c2.9-14.5 3.9-18.7 7.1-29.5.7-2.3 1.2-4 4.1-15.3.6-2.3 1.5-5.1 1.9-6.2.5-1.1 1.1-3.1 1.3-4.5.3-1.4 2.2-7 4.2-12.5 4-11 3.9-10.8 8.8-21.5 4.7-10.5 6.2-14.8 5.3-15.7-.4-.4-1.1-.1-1.6.7s-2.5 4-4.4 7c-8.9 13.9-28.3 55.8-35.1 75.5-.9 2.7-2.1 5.9-2.5 7s-1.3 4-2 6.5-2 6.5-2.8 9-1.8 5.8-2.2 7.5c-10.2 37.5-17 70.3-17.5 84.2-.2 4.5-.6 8.7-1 9.2-1.5 2.6-10.7.4-46.9-11-45-14.3-108-45-134.9-65.9-12.7-9.7-13.7-10.3-13.7-7.1s24.4 24.1 48 40.9c28.4 20.3 63 39.4 99.5 54.8 7.2 3.1 15.5 6.6 18.5 7.9 7 3 49.2 17.1 67 22.4 17.9 5.3 38.9 10.4 64.4 15.6 12.5 2.5 21.2 4.8 21.7 5.6 1.1 1.7.4 5.1-2.2 10.6-3.5 7.4-5.6 9.3-9.9 9.3-5.2 0-46.4-8.3-57-11.4-4.7-1.4-13.4-3.7-19.5-5.2-14.8-3.5-56.8-17.2-73.5-24.1-26.7-10.8-72.9-34.7-85.3-44-2.9-2.2-8.7-6.5-12.9-9.7-5.2-4-8.3-5.6-9.4-5.2-1.5.6-1.3 1.1 1.2 3.7 7.7 8.1 36.3 31 53.4 42.5 18.5 12.6 62.5 36.4 86.8 46.9 25.4 11 58.6 22.5 99.2 34.3 4 1.2 3.6 4.8-1.6 13.5-6.2 10.5-11.2 14.1-14.3 10.4-1.1-1.4-3.3-2.2-22.1-7.8-5.8-1.7-14.3-4.5-19-6.1-4.7-1.7-10.3-3.6-12.5-4.3-10.2-3.3-48.9-20-63-27.2-2.7-1.5-9.5-4.9-15-7.6-10-5.1-11.6-6-20.9-12.9-2.8-2.1-5.6-3.8-6.1-3.8-.6 0-4.4-2.7-8.5-6-7.2-5.7-9-6.5-9.7-4.4-.6 1.7 11.6 12.4 25.7 22.6 7.4 5.4 17.1 12.4 21.5 15.6 7.5 5.4 10.6 7.5 20.3 13.5 13.6 8.5 23 13.6 39.7 21.7 10.5 5.1 20.1 9.8 21.5 10.5 3.8 2 22.9 10 27.5 11.6 2.2.7 4.5 1.7 5.1 2.1.6.5 2.3.4 3.8-.1 2.1-.9 2.7-.7 3.7 1 .8 1.7.6 3.1-1.5 7.2-2.7 5.6-21.3 30.7-33.4 45.2-22.2 26.6-59.2 63.7-76.6 76.9-3 2.3-7.6 5.8-10.3 7.9-2.6 2.2-8.4 6.2-12.7 9-4.4 2.9-8.1 5.8-8.4 6.4-1 3.3 3.6 1.7 17.7-6.2 37.7-21 64.5-41.3 99-75 33.2-32.4 65-71.2 94.5-115 12.3-18.4 27.1-41.6 29.6-46.6 1.2-2.3 2.8-3.9 3.8-3.9 1.9 0 12.2 10.1 14.1 13.8.7 1.2.9 3.2.5 4.4-.9 3.1-22.2 38-32.4 53.3-12.7 19.1-34.3 47.5-49.3 64.8-15.8 18.3-44.7 47.4-57.7 58.1-5.2 4.3-10.4 8.6-11.5 9.5-2.7 2.2-18 13.1-23.4 16.7-4.7 3.1-6.3 5.4-3.7 5.4 3.7 0 17.3-7.9 42.6-24.7 20.1-13.3 22.3-14.9 36.5-26.6 36.3-30 70.3-66.2 103.8-110.8 14.6-19.4 16.6-21.9 18-21.9 1.5 0 9.4 8.6 12.8 13.9 3.5 5.5 3.8 9.2.7 10.6-1.2.6-7.2 7.6-13.3 15.6-25.2 33.4-56.3 68.1-72.3 80.7-2.3 1.9-7.2 6.3-10.8 9.8-3.6 3.6-8.4 7.6-10.6 9s-5.9 4.3-8.2 6.4c-2.2 2-6.8 5.5-10.1 7.6-8.4 5.3-10.3 7.4-6.8 7.4 1.6 0 14.4-6.6 15.3-7.9.5-.8 12.8-8.1 13.6-8.1.9 0 16.8-11.3 30.3-21.4 7.3-5.6 14.5-11 16-12.1 14.9-10.9 67.6-64.3 68.8-69.8.8-3.8 4.1-3.6 8 .5 6.7 7.2 26.2 37.1 39.1 60.4 18.5 33.2 40.1 84.5 45.2 107.4 2.5 11.2 3.1 13 4.5 13 2.2 0 1.9-5.3-1-23.1-4.4-26.6-14.4-63.4-21.9-80.7-1.4-3.2-5.3-12.5-8.7-20.7-7.4-18-20-43.6-31.7-64-4.6-8.3-9.3-16.8-10.3-19-3.7-8.4-43.4-62.9-67.6-92.8-6.2-7.7-11.3-14.5-11.3-15.2 0-1.9 3.1-4.2 9.3-7 9.7-4.3 10.2-4.1 20.9 8.7 13.4 16 24.1 29.6 33.2 42.3 4.3 6 8.7 12.1 9.7 13.5 18.5 24.9 49.7 80 59.4 104.5 1.5 3.8 4.9 11.9 7.5 18 5.2 12.1 7.5 18.9 11.4 34 3 11.5 4.2 14.5 5.5 14.5 2.3 0 2.1-3.3-.8-19-4-20.7-17.2-68.3-22.6-81.5-18.8-45.1-42.6-89.8-67.1-126-10.1-14.8-14.4-21.9-14.4-23.5 0-2.3 2.9-3.9 13.3-7.5 4.7-1.7 9.1-2.5 11.7-2.3 3.8.3 4.3.6 5.5 4 .7 2 2.3 5 3.6 6.6 1.3 1.7 4 5.6 5.9 8.7 1.9 3.2 6.2 10 9.5 15.1 8.8 13.6 10.4 16.4 19.2 32.4 4.3 8 8.4 15.4 9.1 16.5 1.1 2.1 14.7 30.4 16.2 34 .4 1.1 1.8 4.1 2.9 6.6 1.2 2.5 2.1 4.9 2.1 5.3s.6 2.2 1.4 3.9c2.4 5.4 6.4 17.7 9.7 30.2 3.3 12.7 4.4 15.5 5.9 15.5 1.4 0 1.2-5.4-.4-13.5-.8-3.9-2.2-10.6-3-15-.9-4.4-2.3-10.3-3.1-13-.8-2.8-2.1-7.7-3-11-2.6-9.7-5.5-19.5-8-26.5-2.9-8-9.1-24.7-11.7-31.5-1.1-2.8-2.4-6.4-3-8-.9-2.6-10.6-23.1-16.6-35-7.3-14.6-12.9-24.4-15.4-27.1s-2.8-3.5-1.9-5.3c1.6-3 2.8-3.4 22.4-8.5 22.4-5.8 45.6-10.5 71.2-14.5 33.3-5.1 84.9-6.8 109.8-3.6 4.9.7 5.7.6 5.7-.9 0-2-2.9-3.2-10.8-4.5-3.1-.6-8.8-1.7-12.7-2.6-22.2-4.9-63.4-7.3-93.8-5.6-70.7 4-139.1 18.5-213.5 45.2-9.1 3.2-17 5.9-17.7 5.9-2.5 0-3.5-2.9-3.7-11.8-.2-7.5 0-9.4 1.4-10.8 6.2-6.2 75.4-28.3 116.8-37.3 15.5-3.4 41.6-7.9 54.5-9.5 28.8-3.6 82.2-4.5 95.9-1.6 9.1 1.9 11.7-1.9 2.8-3.9-40.6-9.5-100.3-11.5-150.2-5.1-8.5 1-17.7 2.2-20.5 2.6-17.8 2.2-70.2 13.3-89.9 19-11.7 3.5-12.1 3.1-12.1-10.6 0-12.9 1.3-15 9.7-15.5 3.1-.2 6.5-.8 7.5-1.3 2.4-1.3 28-6.5 42.8-8.7 6.1-.9 12.4-2.3 14-3.1 1.7-.7 6-1.8 9.7-2.3s7.1-1.2 7.5-1.4c.4-.3 3.5-.8 6.8-1.1 3.3-.4 6.9-.9 8-1.1 3.2-.8 29.6-2.5 46-3.1 8.4-.3 20.7-.1 28 .6 17.9 1.6 19.8 1.7 20.2.4 1-2.9-12.3-5.2-52.7-9.3-9.3-1-61-1-74.5 0-11.7.8-21 1.7-26.3 2.4-2 .3-7.1 1-11.2 1.6s-10.4 1.4-14 1.9c-5.9.8-9 1.5-15.7 3.5-5 1.5-5.2-6-1.2-39.5 4.6-38.8 11-69.3 22.4-107 4.5-14.6 13.4-36.5 22.2-54.1.1-.4-.4-1.2-1.2-1.9-1.2-1-2.2 0-5.8 5.7m231.1 755.9c-25.4 6.1-41.3 29.1-39.4 56.9 1 15.1 6 26.8 15.2 36.1 16.1 16 43.2 20.1 64.2 9.5 9.8-5 21.2-16 21.2-20.7 0-1.1-13.8-10.6-17.5-12-1-.4-3.6 1.3-7.5 5-7.5 7.1-13.4 9.8-22 9.9-11.1 0-20.6-5.8-25.7-15.7-3.5-6.8-4.4-19.9-1.8-27.5 3.8-11.6 15.1-19.5 28-19.5 8.8 0 14.7 2.8 22.5 10.8 3 3.1 6.1 5.6 7 5.6s5-2.3 9.3-5.1c8.8-5.9 9.3-7.3 4.9-13.5-12.5-17.1-36.4-25.2-58.4-19.8m-598 1.5c-1.7.9-1.8 4.5-1.8 51.7 0 38.2.3 51.1 1.2 52 1.9 1.9 54.6 1.7 62.1-.3 10.8-2.8 16.9-7.2 21-15 1.7-3.2 2.1-5.8 2.1-12.5 0-10.1-1.3-13.6-7.8-20.9-2.5-2.8-4.6-5.4-4.6-5.7 0-.2 1-2.1 2.3-4.2 3.9-6.3 5.1-10.3 5.1-17.2-.1-15.3-10.1-25.4-27.9-28-9.2-1.3-49.5-1.3-51.7.1m51.5 23c3.7 1.9 5.7 5.2 5.7 9.4 0 8.6-5 11.5-20.2 11.5-14.1 0-14.8-.5-14.8-11 0-10.9.2-11 15.1-11 6.9 0 13 .5 14.2 1.1m2.2 41.3c6.1 2.6 7.6 10.2 2.9 14.9-3.2 3.3-8.5 4.1-21.7 3.5-12-.6-12.7-1.2-12.7-10.4 0-8.8 1-9.4 16.3-9.4 7.9 0 12.9.5 15.2 1.4m81.3-64.7c-1 .2-2.1 1.5-2.4 2.8s-.4 24.1-.2 50.9c.2 38.1.6 48.8 1.6 49.8s9.2 1.3 38 1.3c36.7 0 36.7 0 37-10.4.2-7.5-.1-10.7-1-11.2-.6-.4-12-.8-25.2-.9-15.7 0-24.4-.4-25.3-1.2-1-.8-1.3-9.1-1.3-40.2 0-29.2-.3-39.5-1.2-40.4-1.2-1.2-16.1-1.5-20-.5m162.2.6c-1.8.9-3.7 4.2-7.1 12.2-2.6 6.1-8.4 19.8-12.9 30.5s-12 28.3-16.6 39.1c-5 11.6-8.2 20.3-7.8 21.3.5 1.3 2.3 1.6 11.4 1.6 11.9 0 12-.1 15.9-7.7 3.6-7.3 3.8-7.3 28.4-7.3 13.1 0 22.6.4 23.8 1 1 .6 3 3.3 4.4 6 3.7 7.3 5.2 8 17.1 8 7.6 0 10.3-.3 10.7-1.3.4-1.2-5.6-15.9-37.4-91.2-2.8-6.6-5.6-12.3-6.2-12.7-2-1.3-21-.9-23.7.5m15.9 40.9c4.6 10.5 9.4 24.6 8.8 26.3-.5 1.2-2.9 1.5-13.7 1.5-14.7 0-15.1-.2-12.9-6.7 1.7-5.5 9.9-24.6 11.1-26.1 2.1-2.5 3.9-1.1 6.7 5m99.3-40.9c-1.6 1.9-1.7 99.9-.1 102.8.8 1.7 2.2 1.9 11 1.9 9.8 0 10 0 10.9-2.6.6-1.4 1-14.5 1-29.9 0-17 .4-27.6 1-28 1.9-1.2 4 1.1 19.1 20 29.8 37.3 30.7 38.4 35.3 39.6 5.1 1.4 16.8.8 19-1 1.4-1.2 1.6-6.4 1.6-51 0-29.5-.4-50.2-1-51.1-1.5-2.3-19.1-2.8-21.3-.5-1.5 1.5-1.7 4.9-1.7 30 0 16-.4 28.6-.9 28.9-.5.4-1.6.3-2.4 0s-11.2-12.8-23-27.7c-11.8-15-22.7-28.3-24.2-29.7-2.4-2.3-3.6-2.5-12.9-2.8-8-.3-10.5-.1-11.4 1.1"/></svg>